<svg width="36" height="36" viewBox="0 0 36 36" fill="none" xmlns="http://www.w3.org/2000/svg">
<path d="M18 34.125C26.9056 34.125 34.125 26.9056 34.125 18C34.125 9.09441 26.9056 1.875 18 1.875C9.09441 1.875 1.875 9.09441 1.875 18C1.875 26.9056 9.09441 34.125 18 34.125Z" stroke="#FF4400" stroke-opacity="0.482353" stroke-linecap="round" stroke-linejoin="round"/>
<path d="M33.075 23.7C31.5143 21.108 29.2552 19.0078 26.5564 17.64C23.8576 16.2723 20.8282 15.6921 17.815 15.966C14.8019 16.24 11.9267 17.3569 9.51883 19.1889C7.11094 21.0209 5.26762 23.494 4.19995 26.325" stroke="#FF4400" stroke-opacity="0.482353" stroke-linecap="round" stroke-linejoin="round"/>
<path d="M10.125 32.1C9.75001 30.375 9.97501 29.25 11.4 28.2C11.8566 27.8615 12.1972 27.3899 12.375 26.85C12.4529 26.6242 12.5812 26.4191 12.7501 26.2501C12.9191 26.0812 13.1242 25.9529 13.35 25.875C14.3268 25.3955 15.4379 25.2632 16.5 25.5C17.625 25.95 18.15 26.85 19.05 27.225C19.5937 27.472 20.2119 27.4989 20.775 27.3C22.35 26.55 23.325 27.45 23.925 28.5C24.6208 29.6299 25.3979 30.7078 26.25 31.725" stroke="#FF4400" stroke-opacity="0.482353"/>
<path d="M22.275 27.075C22.2 25.725 22.65 25.2 21.45 25.2C20.925 25.2 20.175 25.2 19.95 24.825C19.65 24.075 19.35 24.075 18.825 23.925C18.3829 23.7102 17.8868 23.6318 17.4 23.7C17.175 23.775 17.625 24.9 17.025 24.825C16.725 24.75 16.35 23.475 15.825 23.1C15.517 22.963 15.1758 22.9184 14.843 22.9717C14.5101 23.025 14.1999 23.1738 13.95 23.4C12.9 24.375 12.225 24.6 11.55 24.225C11.1 24 11.325 22.65 11.625 22.425C12.3 21.975 12.6 22.425 13.125 21.675C13.275 21.45 12.9 20.925 13.275 20.25C13.65 19.575 15.15 20.25 15.75 19.425C16.35 18.6 17.85 17.4 19.05 18.225C19.2789 18.4076 19.5311 18.5589 19.8 18.675C20.025 18.825 20.25 18.225 20.55 17.925C20.85 17.625 21 17.7 21.525 17.7C22.4067 17.4651 23.2614 17.1383 24.075 16.725" stroke="#FF4400" stroke-opacity="0.482353"/>
<path d="M21.225 9.975L19.875 10.725L19.125 12.075L18.375 10.725L17.025 9.975L18.375 9.225L19.125 7.875L19.875 9.225L21.225 9.975ZM14.025 7.425L13.05 7.95L12.525 8.925L12 7.95L11.025 7.425L12 6.9L12.525 6L13.05 6.975L14.025 7.425ZM28.05 12.075L27.3 12.45L26.925 13.2L26.55 12.45L25.8 12.075L26.55 11.7L26.925 10.95L27.3 11.7L28.05 12.075ZM7.72498 14.775L6.97498 15.15L6.59998 15.9L6.22498 15.15L5.47498 14.775L6.22498 14.4L6.59998 13.65L6.97498 14.4L7.72498 14.775Z" stroke="#FF4400" stroke-opacity="0.482353" stroke-linecap="round" stroke-linejoin="round"/>
</svg>
